<mxfile host="app.diagrams.net" modified="2024-06-10T07:32:46.628Z" agent="Mozilla/5.0 (Macintosh; Intel Mac OS X 10_15_7) AppleWebKit/537.36 (KHTML, like Gecko) Chrome/122.0.0.0 Safari/537.36" version="24.2.7" etag="qPS56j93TIuPUVH0mcjy" type="github">
  <diagram name="Page-1" id="3FEILQB9fhOGYFCIdNsf">
    <mxGraphModel>
      <root>
        <mxCell id="0" />
        <mxCell id="1" parent="0" />
      </root>
    </mxGraphModel>
  </diagram>
</mxfile>
